<svg xmlns="http://www.w3.org/2000/svg" viewBox="0 60 1100 760">
<g>
<g transform="matrix(0.6880000000000001,0,0,0.6880000000000001,621.0362839999998,107.82450800000001)">
<path d=" M574.599,48.904999999999994 C574.599,48.904999999999994 539.7429999999999,48.904999999999994 539.7429999999999,48.904999999999994 C533.517,9.986999999999995 499.801,-19.75 459.126,-19.75 C418.023,-19.75 384.03,10.62299999999999 378.324,50.146 C374.87,49.340999999999994 371.279,48.904999999999994 367.586,48.904999999999994 C341.446,48.904999999999994 320.25,70.097 320.25,96.237 C320.25,122.37799999999999 341.446,143.57 367.586,143.57 C367.586,143.57 574.599,143.57 574.599,143.57 C600.739,143.57 621.928,122.37799999999999 621.928,96.237 C621.928,70.097 600.739,48.904999999999994 574.599,48.904999999999994z" style="fill: #e0e0e0;"></path>
</g>
<g>
<g transform="matrix(0.86,0,0,0.86,294.5197399999999,794.76)">
<path d=" M0.8090000000000259,9.225999999999999 C0.8090000000000259,13.977 138.096,17.83 307.435,17.83 C476.775,17.83 614.0609999999999,13.975 614.0609999999999,9.224 C614.0609999999999,4.472999999999999 476.775,0.6199999999999992 307.435,0.6199999999999992 C138.096,0.6199999999999992 0.8090000000000259,4.475 0.8090000000000259,9.225999999999999z" style="fill: rgb(230, 230, 230);"></path>
</g>
<g transform="matrix(0.8576959436121996,-0.06291000167841662,0.06291000167841662,0.8576959436121996,437.41015639299786,346.1545996119572)">
<path d=" M40.058,35.396 C41.326,38.537000000000006 44.157,38.231 44.266,36.551 C44.455,33.648 45.624,29.456000000000003 45.105,26.748000000000005 C44.721,24.743000000000002 46.027,22.807000000000002 48.034,22.419 C50.028,22.033 51.961,23.343 52.35,25.35 C53.559,31.592000000000002 52.272999999999996,36.343 52.009,41.878 C51.685,48.691 46.438,52.102000000000004 49.077,57.581 C49.952,59.398 40.589,60.363 37.718,57.581 C36.758,56.648 31.701,43.45 32.62,37.003 C33.143,33.335 39.161,33.176 40.058,35.396z" style="fill: rgb(241, 177, 59);"></path>
<path d=" M29.925000000000004,36.424 C29.925000000000004,36.424 27.888000000000005,6.034000000000001 27.888000000000005,6.034000000000001 C27.719000000000005,3.9480000000000004 29.262000000000004,2.100999999999999 31.350000000000005,1.9190000000000005 C33.44500000000001,1.7370000000000019 35.287000000000006,3.2859999999999996 35.474000000000004,5.381 C35.474000000000004,5.381 37.508,35.768 37.508,35.768 C37.68300000000001,37.862 36.138000000000005,39.701 34.044000000000004,39.882999999999996 C31.953000000000003,40.065 30.109000000000005,38.519 29.925000000000004,36.424z" style="fill: rgb(241, 177, 59);"></path>
<path d=" M22.596999999999998,31.71 C22.596999999999998,31.71 16.365,5.988999999999999 16.365,5.988999999999999 C15.878999999999998,3.9499999999999993 17.132999999999996,1.8930000000000007 19.173,1.4009999999999998 C21.208999999999996,0.9089999999999989 23.269,2.161999999999999 23.764999999999997,4.201999999999998 C23.764999999999997,4.201999999999998 29.993,29.927 29.993,29.927 C30.482999999999997,31.965999999999998 29.227999999999998,34.022999999999996 27.188999999999997,34.515 C25.148999999999997,35.007 23.089999999999996,33.756 22.596999999999998,31.71z" style="fill: rgb(241, 177, 59);"></path>
<path d=" M7.532,12.072999999999997 C7.202,10.289999999999997 8.174,8.472999999999997 9.934000000000001,7.810999999999996 C11.9,7.075999999999997 14.096,8.070999999999998 14.831,10.036999999999997 C14.831,10.036999999999997 23.874000000000002,34.138 23.874000000000002,34.138 C24.630000000000003,36.108 23.621000000000002,38.297999999999995 21.656,39.028999999999996 C19.689,39.768 17.490000000000002,38.777 16.755,36.806999999999995 C16.755,36.806999999999995 7.711,12.711999999999996 7.711,12.711999999999996 C7.635,12.498999999999997 7.568,12.285999999999996 7.532,12.072999999999997z" style="fill: rgb(241, 177, 59);"></path>
<path d=" M-2.2270000000000003,24.155 C-2.715,22.661 -2.232000000000001,20.958000000000002 -0.9090000000000007,19.956000000000003 C0.7669999999999995,18.687 3.1479999999999997,19.015 4.4239999999999995,20.69 C4.4239999999999995,20.69 20.727,42.226 20.727,42.226 C21.985,43.901 21.668999999999997,46.286 19.988999999999997,47.557 C18.314999999999998,48.823 15.931,48.492000000000004 14.663,46.816 C14.663,46.816 -1.6390000000000011,25.282000000000004 -1.6390000000000011,25.282000000000004 C-1.9070000000000018,24.935000000000002 -2.0969999999999995,24.553 -2.2270000000000003,24.155z" style="fill: rgb(241, 177, 59);"></path>
<path d=" M17.094,52.61 C12.456,44.352000000000004 11.236999999999998,39.03 12.079999999999998,37.362 C12.922999999999998,35.694 17.166,30.653000000000002 17.166,30.653000000000002 C17.166,30.653000000000002 25.788,27.145000000000003 25.788,27.145000000000003 C25.788,27.145000000000003 33.001,24.071000000000005 35.125,26.489000000000004 C37.248999999999995,28.907000000000004 38.85,32.385000000000005 38.85,32.385000000000005 C38.85,32.385000000000005 50.814,61.325 50.814,61.325 C50.814,61.325 54.827,73.12700000000001 47.105999999999995,76.73 C36.153,81.84100000000001 28.921,72.393 28.921,72.393 C28.921,72.393 19.912,57.637 17.094,52.61z" style="fill: rgb(241, 177, 59);"></path>
</g>
<g transform="matrix(0.8506222944188082,-0.12665588118078927,0.12665588118078927,0.8506222944188082,255.58501559699215,531.6498522415666)">
<g style="stroke-linecap: butt; stroke-linejoin: round; fill-opacity: 0; stroke: rgb(41, 98, 255); stroke-opacity: 1; stroke-width: 34;">
<path d=" M305,-55.5 C305,-55.5 272.5,-114.5 272.5,-114.5"></path>
</g>
</g>
<g transform="matrix(0.84885544564642,-0.13800156664479424,0.13800156664479424,0.84885544564642,256.7535900158229,535.0122262012205)">
<g style="stroke-linecap: round; stroke-linejoin: round; fill-opacity: 0; stroke: rgb(41, 98, 255); stroke-opacity: 1; stroke-width: 34;">
<path d=" M392.5,-59 C392.5,-59 305,-55.5 305,-55.5"></path>
</g>
</g>
<g transform="matrix(0.8599992030843989,0.001170766500608945,-0.001170766500608945,0.8599992030843989,564.5954369453223,398.26831316750247)">
<path d=" M29.86,0.8650000000000002 C29.86,0.8650000000000002 36.248000000000005,22.585 36.248000000000005,22.585 C36.248000000000005,22.585 6.437000000000001,30.250999999999998 6.437000000000001,30.250999999999998 C6.437000000000001,30.250999999999998 0.9000000000000021,5.125 0.9000000000000021,5.125 C0.9000000000000021,5.125 29.86,0.8650000000000002 29.86,0.8650000000000002z" style="fill: rgb(237, 161, 41);"></path>
</g>
<g transform="matrix(0.7542303421946104,-0.41320284475424524,0.41320284475424524,0.7542303421946104,556.0407591970584,709.137348902361)">
<g style="stroke-linecap: round; stroke-linejoin: round; fill-opacity: 0; stroke: rgb(68, 68, 68); stroke-opacity: 1; stroke-width: 17.035;">
<path d=" M43.106,43.016 C43.106,43.016 64.825,43.016 64.825,43.016"></path>
</g>
</g>
<g transform="matrix(5.265981236333619e-17,-0.86,0.86,5.265981236333619e-17,546.59692,748.4963)">
<g style="stroke-linecap: round; stroke-linejoin: round; fill-opacity: 0; stroke: rgb(135, 204, 171); stroke-opacity: 1; stroke-width: 13.628;">
<path d=" M46.163,35.044 C46.163,35.044 34.605000000000004,77.312 34.605000000000004,77.312"></path>
</g>
</g>
<g transform="matrix(0.7542303421946104,-0.41320284475424524,0.41320284475424524,0.7542303421946104,546.8059459178373,688.7009543157926)">
<path d=" M54.288,47.846000000000004 C54.288,47.846000000000004 89.90599999999999,47.846000000000004 89.90599999999999,47.846000000000004 C89.90599999999999,47.846000000000004 90.606,8.777000000000001 81.363,3.210000000000001 C72.11999999999999,-2.3569999999999993 70.009,0.46199999999999974 62.41,2.6580000000000013 C54.81099999999999,4.854000000000003 54.288,47.846000000000004 54.288,47.846000000000004z" style="fill: rgb(241, 136, 127);"></path>
<path d=" M89.904,56.17 C89.904,56.17 89.904,30.497999999999998 89.904,30.497999999999998 C74.177,30.497999999999998 63.77,25.178 63.77,25.178 C63.77,25.178 64.695,16.621 55.675000000000004,16.621 C46.655,16.621 48.046,25.178 44.113,31.423000000000002 C40.184000000000005,37.668 26.263000000000005,46.92 12.891000000000005,46.918 C5.026000000000003,46.918 1.0940000000000012,49.695 1.0940000000000012,55.475 C1.0940000000000012,61.257000000000005 89.904,56.17 89.904,56.17z" style="fill: rgb(68, 69, 69);"></path>
<path d=" M1.0940000000000012,62.415 C1.0940000000000012,62.415 89.904,62.415 89.904,62.415 C89.904,62.415 89.904,55.478 89.904,55.478 C89.904,55.478 1.0940000000000012,55.475 1.0940000000000012,55.475 C1.0940000000000012,55.475 1.0940000000000012,62.415 1.0940000000000012,62.415z" style="fill: rgb(94, 94, 94);"></path>
</g>
<g transform="matrix(0.86,0,0,0.86,561.97974,480)">
<g style="stroke-linecap: butt; stroke-linejoin: miter; fill-opacity: 0; stroke-miterlimit: 4; stroke: rgb(68, 69, 69); stroke-opacity: 1; stroke-width: 46;">
<path d=" M97,37 C97,37 14.625,92.375 7.75,113.563 C1.2439999999999998,133.633 54.438,218.375 54.438,218.375"></path>
</g>
</g>
<g transform="matrix(0.86,0,0,0.86,643.3039200000001,513.6819)">
<path d=" M2,-25.25 C14.693699999999998,-25.25 25,-14.943699999999998 25,-2.25 C25,10.443699999999998 14.693699999999998,20.75 2,20.75 C-10.693699999999998,20.75 -21,10.443699999999998 -21,-2.25 C-21,-14.943699999999998 -10.693699999999998,-25.25 2,-25.25z M2,-25.25 C14.693699999999998,-25.25 25,-14.943699999999998 25,-2.25 C25,10.443699999999998 14.693699999999998,20.75 2,20.75 C-10.693699999999998,20.75 -21,10.443699999999998 -21,-2.25 C-21,-14.943699999999998 -10.693699999999998,-25.25 2,-25.25z" style="fill: rgb(68, 69, 69);"></path>
</g>
<g transform="matrix(0.86,0,0,0.86,271.2997399999999,487.74)">
<g style="stroke-linecap: round; stroke-linejoin: round; fill-opacity: 0; stroke: rgb(163, 163, 163); stroke-opacity: 1; stroke-width: 13.628;">
<path d=" M238.55800000000002,91.913 C238.55800000000002,91.913 238.55800000000002,48.757999999999996 238.55800000000002,48.757999999999996 C238.55800000000002,48.757999999999996 212.436,34.565 212.436,34.565"></path>
</g>
<g style="stroke-linecap: butt; stroke-linejoin: miter; fill-opacity: 0; stroke-miterlimit: 10; stroke: rgb(163, 163, 163); stroke-opacity: 1; stroke-width: 3.407;">
<path d=" M358.083,288.665 C419.499,281 512.751,283.297 512.5,283 C522.072,276.891 530.328,256.25600000000003 531.551,251.479"></path>
</g>
<g style="stroke-linecap: round; stroke-linejoin: round; fill-opacity: 0; stroke: rgb(163, 163, 163); stroke-opacity: 1; stroke-width: 3.407;">
<path d=" M358.084,228.474 C358.084,228.474 462.46500000000003,232.524 511.896,232.524"></path>
</g>
<path d=" M531.553,251.478 C531.553,251.478 534.96,282.704 512.249,282.704 C512.249,282.704 512.249,251.478 512.249,251.478 C512.249,251.478 531.553,251.478 531.553,251.478z" style="fill: rgb(163, 163, 163);"></path>
<path d=" M511.879,230.501 C524.0208,230.501 533.879,240.35920000000002 533.879,252.501 C533.879,264.6428 524.0208,274.501 511.879,274.501 C499.73720000000003,274.501 489.879,264.6428 489.879,252.501 C489.879,240.35920000000002 499.73720000000003,230.501 511.879,230.501z M511.879,230.501 C524.0208,230.501 533.879,240.35920000000002 533.879,252.501 C533.879,264.6428 524.0208,274.501 511.879,274.501 C499.73720000000003,274.501 489.879,264.6428 489.879,252.501 C489.879,240.35920000000002 499.73720000000003,230.501 511.879,230.501z" style="fill: rgb(163, 163, 163);"></path>
<g style="stroke-linecap: butt; stroke-linejoin: miter; fill-opacity: 0; stroke-miterlimit: 10; stroke: rgb(135, 204, 171); stroke-opacity: 1; stroke-width: 20.442;">
<path d=" M624.698,255.11399999999998 C624.698,192.677 574.086,142.06 511.65000000000003,142.06 C449.21000000000004,142.06 398.598,192.677 398.598,255.11399999999998"></path>
</g>
<g style="stroke-linecap: round; stroke-linejoin: round; fill-opacity: 0; stroke: rgb(68, 68, 68); stroke-opacity: 1; stroke-width: 17;">
<path d=" M408.01700000000005,253.811 C408.01700000000005,311.044 454.413,357.444 511.65000000000003,357.444 C568.886,357.444 615.279,311.044 615.279,253.811 C615.279,196.578 568.886,150.178 511.65000000000003,150.178 C454.413,150.178 408.01700000000005,196.578 408.01700000000005,253.811z"></path>
</g>
<g style="stroke-linecap: round; stroke-linejoin: round; fill-opacity: 0; stroke: rgb(135, 204, 171); stroke-opacity: 1; stroke-width: 20.442;">
<path d=" M258.413,253.811 C258.413,192.336 208.577,142.499 147.10500000000002,142.499 C132.36599999999999,142.499 118.295,145.364 105.423,150.567"></path>
</g>
<path d=" M125.72500000000001,252.499 C125.72500000000001,264.44 135.407,274.109 147.338,274.109 C159.27200000000002,274.109 168.945,264.44 168.945,252.499 C168.945,240.564 159.27200000000002,230.893 147.338,230.893 C135.407,230.893 125.72500000000001,240.568 125.72500000000001,252.499z" style="fill: rgb(163, 163, 163);"></path>
<g style="stroke-linecap: round; stroke-linejoin: round; fill-opacity: 0; stroke: rgb(68, 68, 68); stroke-opacity: 1; stroke-width: 17;">
<path d=" M43.47300000000001,253.811 C43.47300000000001,311.044 89.86900000000001,357.444 147.10600000000002,357.444 C204.342,357.444 250.735,311.044 250.735,253.811 C250.735,196.578 204.342,150.178 147.10600000000002,150.178 C89.86900000000001,150.178 43.47300000000001,196.578 43.47300000000001,253.811z"></path>
</g>
<g style="stroke-linecap: round; stroke-linejoin: round; fill-opacity: 0; stroke: rgb(163, 163, 163); stroke-opacity: 1; stroke-width: 13.628;">
<path d=" M413.558,89.413 C413.558,89.413 426.558,61.257999999999996 426.558,61.257999999999996"></path>
</g>
<g style="stroke-linecap: round; stroke-linejoin: round; fill-opacity: 0; stroke: rgb(135, 204, 171); stroke-opacity: 1; stroke-width: 20.442;">
<path d=" M146.001,253.175 C218.678,173.681 238.96000000000004,89.61500000000001 238.96000000000004,89.61500000000001 C238.96000000000004,89.61500000000001 414.89300000000003,89.61500000000001 414.89300000000003,89.61500000000001 C414.89300000000003,89.61500000000001 480.73300000000006,250.337 480.73300000000006,250.337"></path>
</g>
<path d=" M403.252,61.038 C391.863,61.038 391.86,47.969 403.252,47.969 C403.252,47.969 458.12600000000003,47.969 458.12600000000003,47.969 C465.919,47.969 472.24,53.958 472.24,61.347 C472.24,68.737 465.919,74.727 458.12600000000003,74.727 C441.44100000000003,74.727 433.353,61.038 403.252,61.038z" style="fill: rgb(68, 68, 68);"></path>
<g style="stroke-linecap: round; stroke-linejoin: round; fill-opacity: 0; stroke: rgb(135, 204, 171); stroke-opacity: 1; stroke-width: 20.442;">
<path d=" M228.89600000000002,120.31 C276.593,207.756 321.459,254.32 386.192,254.32 C386.192,254.32 512.4480000000001,254.32 512.4480000000001,254.32"></path>
</g>
<path d=" M322.178,257.044 C322.178,275.263 336.949,290.025 355.162,290.025 C373.375,290.025 388.14,275.263 388.14,257.044 C388.14,238.831 373.375,224.067 355.162,224.067 C336.949,224.067 322.178,238.831 322.178,257.044z" style="fill: rgb(163, 163, 163);"></path>
</g>
<g transform="matrix(0.8599999979042322,0.000060039326219834205,-0.000060039326219834205,0.8599999979042322,559.4065823477783,404.31237524440377)">
<path d=" M127,113.96100000000001 C127,113.96100000000001 78.647,48.144000000000005 64.819,24.528000000000006 C55.550000000000004,8.698000000000008 43.521,0.6830000000000069 24.783,8.349000000000004 C13.505000000000003,12.963000000000001 1.1379999999999981,25.147000000000006 6.332000000000001,42.419000000000004 C13.463999999999999,66.134 49.774,132.699 49.774,132.699 C49.774,132.699 73.71600000000001,126.89 73.71600000000001,126.89 C73.71600000000001,126.89 87.5,143.501 113.048,139.699 C137.5,135.501 127,113.96100000000001 127,113.96100000000001z" style="fill: rgb(41, 98, 255);"></path>
</g>
<g transform="matrix(-1.5797943709000856e-16,0.86,-0.86,-1.5797943709000856e-16,606.8760399999999,669.1028200000001)">
<g style="stroke-linecap: round; stroke-linejoin: round; fill-opacity: 0; stroke: rgb(135, 204, 171); stroke-opacity: 1; stroke-width: 13.628;">
<path d=" M46.163,35.044 C46.163,35.044 34.605000000000004,77.312 34.605000000000004,77.312"></path>
</g>
</g>
<g transform="matrix(0.8542694828879536,0.09911433098370986,-0.09911433098370986,0.8542694828879536,497.0674041563498,656.2570583626976)">
<g style="stroke-linecap: round; stroke-linejoin: round; fill-opacity: 0; stroke: rgb(68, 68, 68); stroke-opacity: 1; stroke-width: 17.035;">
<path d=" M43.106,43.016 C43.106,43.016 64.825,43.016 64.825,43.016"></path>
</g>
</g>
<g transform="matrix(0.8542694828879536,0.09911433098370986,-0.09911433098370986,0.8542694828879536,501.3529157277023,634.2442804695784)">
<path d=" M54.288,47.846000000000004 C54.288,47.846000000000004 89.90599999999999,47.846000000000004 89.90599999999999,47.846000000000004 C89.90599999999999,47.846000000000004 89.90599999999999,1.1260000000000012 89.90599999999999,1.1260000000000012 C89.90599999999999,1.1260000000000012 54.288,1.1260000000000012 54.288,1.1260000000000012 C54.288,1.1260000000000012 54.288,47.846000000000004 54.288,47.846000000000004z" style="fill: rgb(241, 136, 127);"></path>
<path d=" M89.904,56.17 C89.904,56.17 89.904,30.497999999999998 89.904,30.497999999999998 C74.177,30.497999999999998 63.77,25.178 63.77,25.178 C63.77,25.178 64.695,16.621 55.675000000000004,16.621 C46.655,16.621 48.046,25.178 44.113,31.423000000000002 C40.184000000000005,37.668 26.263000000000005,46.92 12.891000000000005,46.918 C5.026000000000003,46.918 1.0940000000000012,49.695 1.0940000000000012,55.475 C1.0940000000000012,61.257000000000005 89.904,56.17 89.904,56.17z" style="fill: rgb(68, 69, 69);"></path>
<path d=" M1.0940000000000012,62.415 C1.0940000000000012,62.415 89.904,62.415 89.904,62.415 C89.904,62.415 89.904,55.478 89.904,55.478 C89.904,55.478 1.0940000000000012,55.475 1.0940000000000012,55.475 C1.0940000000000012,55.475 1.0940000000000012,62.415 1.0940000000000012,62.415z" style="fill: rgb(94, 94, 94);"></path>
</g>
<g transform="matrix(0.86,0,0,0.86,644.5397399999999,513.97)">
<path d=" M0,-30.5 C17.1089,-30.5 31,-16.6089 31,0.5 C31,17.6089 17.1089,31.5 0,31.5 C-17.1089,31.5 -31,17.6089 -31,0.5 C-31,-16.6089 -17.1089,-30.5 0,-30.5z M0,-30.5 C17.1089,-30.5 31,-16.6089 31,0.5 C31,17.6089 17.1089,31.5 0,31.5 C-17.1089,31.5 -31,17.6089 -31,0.5 C-31,-16.6089 -17.1089,-30.5 0,-30.5z" style="fill: rgb(110, 110, 110);"></path>
</g>
<g transform="matrix(0.86,0,0,0.86,561.97974,480)">
<g style="stroke-linecap: butt; stroke-linejoin: miter; fill-opacity: 0; stroke-miterlimit: 4; stroke: rgb(110, 110, 110); stroke-opacity: 1; stroke-width: 59;">
<path d=" M96,39.5 C96,39.5 9.1,73.264 -3.4,91.264 C-13.623000000000001,105.98599999999999 -4.644,203.893 -4.644,203.893"></path>
</g>
</g>
<g transform="matrix(0.8599999979042322,0.000060039326219834205,-0.000060039326219834205,0.8599999979042322,559.4065823477783,404.31237524440377)">
<path d=" M127,113.96100000000001 C127,113.96100000000001 78.647,48.144000000000005 64.819,24.528000000000006 C55.550000000000004,8.698000000000008 43.521,0.6830000000000069 24.783,8.349000000000004 C13.505000000000003,12.963000000000001 1.1379999999999981,25.147000000000006 6.332000000000001,42.419000000000004 C13.463999999999999,66.134 36.774,102.19900000000001 36.774,102.19900000000001 C36.774,102.19900000000001 49.806000000000004,107.05600000000001 67.57600000000001,108.511 C85.346,109.96600000000001 127,113.96100000000001 127,113.96100000000001z" style="fill: rgb(41, 98, 255);"></path>
</g>
<g transform="matrix(0.86,0,0,0.86,437.2797399999999,484.3)">
<path d=" M58.071,30.534999999999997 C31.816999999999997,44.629 27.973999999999997,41.777 16.705,44.888 C16.116,45.061 15.322999999999997,46.998999999999995 17.046999999999997,48.897999999999996 C18.714,50.754999999999995 22.230999999999998,50.977999999999994 26.473,51.916 C30.153,52.724 30.029999999999998,57.922 28.412999999999997,57.768 C21.049999999999997,57.083 13.267999999999997,55.729 10.832999999999998,52.412 C6.736999999999998,46.812 1.1709999999999994,28.514 10.093999999999998,24.903 C25.961,18.485 39.245999999999995,13.999999999999998 51.131,9.169999999999998 C71.862,0.7389999999999972 69.113,24.605999999999998 58.071,30.534999999999997z" style="fill: rgb(241, 177, 59);"></path>
</g>
<g transform="matrix(0.86,0,0,0.86,445.8797399999999,510.1)">
<path d=" M23.054,11.253 C23.054,5.214 18.16,0.3230000000000004 12.120999999999999,0.3230000000000004 C6.085999999999999,0.3230000000000004 1.1920000000000002,5.214 1.1920000000000002,11.253 C1.1920000000000002,17.288 6.085999999999999,22.183 12.120999999999999,22.183 C18.16,22.183 23.054,17.288 23.054,11.253z" style="fill: rgb(68, 68, 68);"></path>
</g>
<g transform="matrix(0.86,0,0,0.86,561.97974,480)">
<g style="stroke-linecap: butt; stroke-linejoin: miter; fill-opacity: 0; stroke-miterlimit: 4; stroke: rgb(72, 123, 250); stroke-opacity: 1; stroke-width: 34;">
<path d=" M-98.75,34 C-98.75,34 -30.111,0.7120000000000002 -26.5,-1.625 C-22.25,-4.375 30.375,-68.5 30.375,-68.5"></path>
</g>
</g>
<g transform="matrix(0.86,0,0,0.86,586.6935599999999,422.60016)">
<path d=" M0,-17 C9.382299999999999,-17 17,-9.382299999999999 17,0 C17,9.382299999999999 9.382299999999999,17 0,17 C-9.382299999999999,17 -17,9.382299999999999 -17,0 C-17,-9.382299999999999 -9.382299999999999,-17 0,-17z M0,-17 C9.382299999999999,-17 17,-9.382299999999999 17,0 C17,9.382299999999999 9.382299999999999,17 0,17 C-9.382299999999999,17 -17,9.382299999999999 -17,0 C-17,-9.382299999999999 -9.382299999999999,-17 0,-17z" style="fill: rgb(72, 123, 250);"></path>
</g>
<g transform="matrix(0.8599992030843989,0.001170766500608945,-0.001170766500608945,0.8599992030843989,498.5569671154179,264.8782876688738)">
<path d=" M120.25200000000001,134.928 C117.554,143.65800000000002 79.794,147.631 79.794,147.631 C79.794,147.631 111.025,172.33499999999998 137.14600000000002,147.065 C137.14600000000002,147.065 125.22300000000001,140.821 134.732,85.314 C146.287,17.86699999999999 40.534,0.9549999999999983 33.161,62.104 C25.119,128.80599999999998 120.25200000000001,134.928 120.25200000000001,134.928z" style="fill: rgb(68, 69, 69);"></path>
<path d=" M127.97999999999999,118.578 C127.81700000000001,135.226 119.402,149.857 106.65299999999999,158.62099999999998 C98.618,164.147 88.86,167.34 78.359,167.237 C51.212999999999994,166.971 29.433999999999997,144.752 29.696999999999996,117.613 C29.696999999999996,117.613 29.699999999999996,91.901 29.699999999999996,91.901 C29.967,64.762 52.182,42.98 79.321,43.245999999999995 C106.477,43.513 128.256,65.728 127.983,92.871 C127.983,92.871 127.97999999999999,118.578 127.97999999999999,118.578z" style="fill: rgb(241, 177, 59);"></path>
<path d=" M44.482,67.021 C44.482,67.021 41.04600000000001,78.57000000000001 57.016000000000005,95.674 C65.72300000000001,105 55.958,115.069 50.698,120.875 C47.61,124.28200000000001 48.599000000000004,127.78200000000001 53.003,128.434 C59.468,129.392 64.608,130.243 64.608,130.243 C59.435,136.52100000000002 52.906000000000006,149.816 56.30500000000001,161.579 C56.635000000000005,162.72 53.588,161.17000000000002 52.704,160.323 C44.614000000000004,152.575 30.414,140.949 30.126,123.24300000000001 C29.582,89.744 27.826000000000004,67.856 44.482,67.021z" style="fill: rgb(237, 161, 41);"></path>
<g style="stroke-linecap: round; stroke-linejoin: round; fill-opacity: 0; stroke: rgb(68, 68, 69); stroke-opacity: 1; stroke-width: 5.11;">
<path d=" M37.785999999999994,93.629 C45.934,87.504 54.662,92.288 54.662,92.288"></path>
</g>
<g style="stroke-linecap: round; stroke-linejoin: round; fill-opacity: 0; stroke: rgb(68, 68, 69); stroke-opacity: 1; stroke-width: 5.11;">
<path d=" M75.91199999999999,92.061 C85.05199999999999,87.542 92.746,93.851 92.746,93.851"></path>
</g>
<g style="stroke-linecap: round; stroke-linejoin: round; fill-opacity: 0; stroke: rgb(68, 69, 69); stroke-opacity: 1; stroke-width: 2.555;">
<path d=" M53.919,107 C52.997,104.17200000000001 50.378,102.10900000000001 47.241,102.083 C44.11,102.049 41.445,104.06 40.477000000000004,106.86800000000001"></path>
</g>
<g style="stroke-linecap: round; stroke-linejoin: round; fill-opacity: 0; stroke: rgb(68, 69, 69); stroke-opacity: 1; stroke-width: 2.555;">
<path d=" M89.479,107.35199999999999 C88.561,104.524 85.93900000000001,102.46499999999999 82.802,102.432 C79.674,102.401 77.009,104.41199999999999 76.04100000000001,107.22"></path>
</g>
<g style="stroke-linecap: round; stroke-linejoin: round; fill-opacity: 0; stroke: rgb(240, 91, 91); stroke-opacity: 1; stroke-width: 2.555;">
<path d=" M53.06700000000001,135.992 C56.108000000000004,139.29899999999998 60.43300000000001,141.396 65.29100000000001,141.396 C70.14800000000001,141.396 74.47300000000001,139.29899999999998 77.525,135.992"></path>
</g>
<path d=" M140.331,113.578 C140.261,120.395 134.671,125.872 127.85,125.806 C121.03299999999999,125.739 115.56,120.149 115.624,113.335 C115.69399999999999,106.512 121.282,101.038 128.096,101.101 C134.917,101.17099999999999 140.397,106.754 140.331,113.578z" style="fill: rgb(241, 177, 59);"></path>
<path d=" M29.648,98.303 C29.648,98.303 27.411999999999995,60.614000000000004 49.131,67.427 C49.131,67.427 55.093999999999994,48.69 55.093999999999994,48.69 C31.671,32.507000000000005 0.6890000000000001,72.325 29.648,98.303z" style="fill: rgb(68, 69, 69);"></path>
<path d=" M49.131,67.42699999999999 C77.664,43.577999999999996 115.56700000000001,60.187 110.03,88.295 C104.494,116.402 120.684,123.781 120.684,123.781 C120.684,123.781 114.678,105.544 128.096,101.102 C137.24599999999998,98.071 121.412,31.174999999999997 86.608,30.802 C48.242,30.39 49.131,67.42699999999999 49.131,67.42699999999999z" style="fill: rgb(68, 69, 69);"></path>
</g>
</g>
</g>
</svg>