<svg xmlns="http://www.w3.org/2000/svg" viewBox="120 60 600 300">
<g transform="matrix(0.3808000000000001,0,0,0.3808000000000001,308.47679999999997,166.3072)">
<path d=" M198.922,336.546 C198.922,385.221 159.46,424.686 110.781,424.686 C62.103,424.686 22.638000000000005,385.221 22.638000000000005,336.546 C22.638000000000005,287.864 62.103,248.39999999999998 110.781,248.39999999999998 C159.46,248.39999999999998 198.922,287.864 198.922,336.546z" style="fill: rgb(68, 68, 68);"></path>
<path d=" M154.853,336.546 C154.853,360.885 135.123,380.61499999999995 110.781,380.61499999999995 C86.438,380.61499999999995 66.709,360.885 66.709,336.546 C66.709,312.207 86.438,292.477 110.781,292.477 C135.123,292.477 154.853,312.207 154.853,336.546z" style="fill: rgb(109, 110, 112);"></path>
</g>
<g transform="matrix(0.3808000000000001,0,0,0.3808000000000001,308.47679999999997,166.3072)">
<path d=" M-6846,-7109 C-6846,-7109 7554,-7109 7554,-7109 C7554,-7109 7554,7291 7554,7291 C7554,7291 -6846,7291 -6846,7291 C-6846,7291 -6846,-7109 -6846,-7109z M-6846,7291 C-6846,7291 7554,7291 7554,7291 C7554,7291 7554,-7109 7554,-7109 C7554,-7109 -6846,-7109 -6846,-7109 C-6846,-7109 -6846,7291 -6846,7291z M367.52000000000004,75.19500000000001 C364.033,75.19500000000001 360.81000000000006,72.926 359.75600000000003,69.414 C358.47,65.123 360.90700000000004,60.604 365.19500000000005,59.318000000000005 C365.19500000000005,59.318000000000005 446.81300000000005,34.839 446.81300000000005,34.839 C451.095,33.547 455.62300000000005,35.988 456.90900000000005,40.275000000000006 C458.196,44.566 455.759,49.085 451.47,50.372 C451.47,50.372 369.85200000000003,74.85 369.85200000000003,74.85 C369.077,75.084 368.29100000000005,75.19500000000001 367.52000000000004,75.19500000000001z" style="fill: rgb(204, 204, 204);"></path>
<path d=" M-6846,-7109 C-6846,-7109 7554,-7109 7554,-7109 C7554,-7109 7554,7291 7554,7291 C7554,7291 -6846,7291 -6846,7291 C-6846,7291 -6846,-7109 -6846,-7109z M-6846,7291 C-6846,7291 7554,7291 7554,7291 C7554,7291 7554,-7109 7554,-7109 C7554,-7109 -6846,-7109 -6846,-7109 C-6846,-7109 -6846,7291 -6846,7291z M416.163,52.691 C415.259,49.644 414.379,46.68 414.217,46.078 C414.03,45.253 413.554,44.513999999999996 412.863,44.001999999999995 C411.956,43.326 410.778,43.128 409.703,43.45 C409.703,43.45 363.627,57.391999999999996 363.627,57.391999999999996 C360.832,58.229 358.531,60.103 357.148,62.669 C355.768,65.234 355.468,67.63 356.306,70.423 C357.69,75.038 361.858,77.646 366.691,77.646 C366.691,77.646 366.747,77.646 366.747,77.646 C367.781,77.646 368.83299999999997,78.05 369.88599999999997,77.743 C369.88599999999997,77.743 415.956,64.346 415.956,64.346 C416.697,64.125 417.347,63.808 417.808,63.189 C418.887,61.732 418.887,61.873 416.163,52.691z M368.109,74.993 C368.123,74.989 368.135,74.989 368.149,74.987 C368.149,74.987 368.149,75.197 368.149,75.197 C368.149,75.197 368.109,74.993 368.109,74.993z" style="fill: rgb(68, 68, 68);"></path>
</g>
<g transform="matrix(0.3808000000000001,0,0,0.3808000000000001,308.47679999999997,166.3072)">
<path d=" M468.59099999999995,207.356 C482.13599999999997,204.817 498.70599999999996,205.469 510.294,212.547 C511.505,213.28699999999998 512.602,214.097 513.6469999999999,214.941 C504.21,188.44400000000002 480.171,120.524 462.084,69.376 C465.847,70.727 469.895,71.91399999999999 474.13399999999996,71.91399999999999 C474.13399999999996,71.91399999999999 488.47799999999995,71.91399999999999 488.47799999999995,71.91399999999999 C488.47799999999995,71.91399999999999 488.47799999999995,0.9269999999999925 488.47799999999995,0.9269999999999925 C488.47799999999995,0.9269999999999925 474.13399999999996,0.9269999999999925 474.13399999999996,0.9269999999999925 C454.87399999999997,0.9269999999999925 439.202,16.743999999999986 439.202,36.00099999999999 C439.202,39.222999999999985 439.67699999999996,42.649 440.49699999999996,45.589999999999996 C428.346,48.76 428.291,49.361999999999995 428.20799999999997,51.839999999999996 C428.20799999999997,51.839999999999996 428.12899999999996,54.608 428.12899999999996,54.608 C428.12899999999996,54.608 428.835,54.881 428.835,54.881 C443.21299999999997,108.9 462.98199999999997,184.692 468.59099999999995,207.356z" style="fill: rgb(66, 133, 244);"></path>
<path d=" M500.109,72.794 C500.109,72.794 482.02,72.773 482.02,72.773 C482.02,72.773 482.104,0.3059999999999974 482.104,0.3059999999999974 C482.104,0.3059999999999974 500.192,0.3269999999999982 500.192,0.3269999999999982 C500.192,0.3269999999999982 500.109,72.794 500.109,72.794z" style="fill: rgb(68, 68, 68);"></path>
</g>
<g transform="matrix(0.3808000000000001,0,0,0.3808000000000001,308.47679999999997,166.3072)">
<path d=" M-6846,-7109 C-6846,-7109 7554,-7109 7554,-7109 C7554,-7109 7554,7291 7554,7291 C7554,7291 -6846,7291 -6846,7291 C-6846,7291 -6846,-7109 -6846,-7109z M-6846,7291 C-6846,7291 7554,7291 7554,7291 C7554,7291 7554,-7109 7554,-7109 C7554,-7109 -6846,-7109 -6846,-7109 C-6846,-7109 -6846,7291 -6846,7291z M508.972,217.93899999999996 C498.332,211.44199999999998 482.959,210.863 470.279,213.22099999999998 C470.284,213.24399999999997 470.29200000000003,213.27499999999998 470.297,213.29799999999997 C435.384,228.70499999999998 423.371,253.77499999999998 413.674,274.02099999999996 C404.75300000000004,292.643 398.308,306.101 377.947,306.101 C354.102,306.101 317.273,304.792 277.219,302.94899999999996 C248.62,295.262 232.943,270.091 232.943,245.10999999999999 C232.943,215.325 252.103,185.26999999999998 299.428,185.26999999999998 C299.428,185.26999999999998 299.428,181.76099999999997 299.428,181.76099999999997 C299.428,181.76099999999997 134.154,181.76099999999997 134.154,181.76099999999997 C97.73400000000001,181.76099999999997 67.92600000000002,191.84499999999997 45.543000000000006,214.58499999999998 C25.126000000000005,235.32799999999997 14.114000000000004,262.03299999999996 8.159999999999997,285.015 C30.199000000000012,267.24 88.374,224.926 143.724,222.54899999999998 C179.68,221.04099999999997 202.417,234.522 213.31300000000002,263.726 C224.25300000000001,293.053 199.066,328.72499999999997 197.98700000000002,330.226 C197.614,330.74899999999997 197.02800000000002,331.044 196.435,331.044 C196.046,331.044 195.657,330.938 195.32100000000003,330.695 C194.46200000000002,330.07899999999995 194.264,328.892 194.88,328.033 C195.13100000000003,327.682 219.955,292.54699999999997 209.728,265.135 C199.489,237.68699999999998 177.966,225.04799999999997 143.889,226.522 C85.93400000000003,229.009 24.485000000000014,276.621 6.652000000000015,291.483 C0.9950000000000045,316.34999999999997 1.1650000000000205,335.01099999999997 1.1890000000000214,336.59999999999997 C1.1890000000000214,336.59999999999997 1.2390000000000327,337.933 1.2390000000000327,337.933 C1.2390000000000327,337.933 277.754,337.933 277.754,337.933 C277.754,337.933 291.185,337.933 291.185,337.933 C291.185,337.933 379.788,337.933 379.788,337.933 C411.677,337.933 422.446,320.26599999999996 434.918,298.679 C449.036,274.236 465.041,247.05399999999997 516.014,232.16599999999997 C516.014,232.16599999999997 519.34,231.41899999999998 519.34,231.41899999999998 C517.9680000000001,225.70799999999997 514.502,221.31499999999997 508.972,217.93899999999996z" style="fill: rgb(66, 133, 244);"></path>
<path d=" M-6846,-7109 C-6846,-7109 7554,-7109 7554,-7109 C7554,-7109 7554,7291 7554,7291 C7554,7291 -6846,7291 -6846,7291 C-6846,7291 -6846,-7109 -6846,-7109z M-6846,7291 C-6846,7291 7554,7291 7554,7291 C7554,7291 7554,-7109 7554,-7109 C7554,-7109 -6846,-7109 -6846,-7109 C-6846,-7109 -6846,7291 -6846,7291z M303.084,186.494 C303.084,186.494 102.31899999999999,186.494 102.31899999999999,186.494 C90.14499999999998,186.494 80.28099999999999,177.369 80.28099999999999,165.198 C80.28099999999999,153.03 90.14499999999998,143.90200000000002 102.31899999999999,143.90200000000002 C102.31899999999999,143.90200000000002 303.084,143.90200000000002 303.084,143.90200000000002 C315.255,143.90200000000002 325.11899999999997,153.03 325.11899999999997,165.198 C325.11899999999997,177.369 315.255,186.494 303.084,186.494z" style="fill: rgb(68, 68, 68);"></path>
</g>
<g transform="matrix(0.3808000000000001,0,0,0.3808000000000001,308.47679999999997,166.3072)">
<path d=" M-6846,-7109 C-6846,-7109 7554,-7109 7554,-7109 C7554,-7109 7554,7291 7554,7291 C7554,7291 -6846,7291 -6846,7291 C-6846,7291 -6846,-7109 -6846,-7109z M-6846,7291 C-6846,7291 7554,7291 7554,7291 C7554,7291 7554,-7109 7554,-7109 C7554,-7109 -6846,-7109 -6846,-7109 C-6846,-7109 -6846,7291 -6846,7291z M623.817,337.881 C623.817,386.556 584.352,426.02099999999996 535.674,426.02099999999996 C486.99899999999997,426.02099999999996 447.53299999999996,386.556 447.53299999999996,337.881 C447.53299999999996,289.2 486.99899999999997,249.73499999999999 535.674,249.73499999999999 C584.352,249.73499999999999 623.817,289.2 623.817,337.881z" style="fill: rgb(68, 68, 68);"></path>
<path d=" M-6846,-7109 C-6846,-7109 7554,-7109 7554,-7109 C7554,-7109 7554,7291 7554,7291 C7554,7291 -6846,7291 -6846,7291 C-6846,7291 -6846,-7109 -6846,-7109z M-6846,7291 C-6846,7291 7554,7291 7554,7291 C7554,7291 7554,-7109 7554,-7109 C7554,-7109 -6846,-7109 -6846,-7109 C-6846,-7109 -6846,7291 -6846,7291z M579.7420000000001,337.881 C579.7420000000001,362.21999999999997 560.0160000000001,381.94899999999996 535.674,381.94899999999996 C511.33500000000004,381.94899999999996 491.60200000000003,362.21999999999997 491.60200000000003,337.881 C491.60200000000003,313.542 511.33500000000004,293.813 535.674,293.813 C560.0160000000001,293.813 579.7420000000001,313.542 579.7420000000001,337.881z" style="fill: rgb(109, 110, 112);"></path>
</g>
<g transform="matrix(0.3808000000000001,0,0,0.3808000000000001,308.47679999999997,166.3072)">
<path d=" M612.753,288.205 C599.572,262.667 568.034,246.17 534.394,246.17 C483.82300000000004,246.17 441.40400000000005,287.30899999999997 441.40400000000005,337.879 C441.40400000000005,337.879 441.40400000000005,342.64799999999997 441.40400000000005,342.64799999999997 C441.40400000000005,342.64799999999997 447.259,341.303 447.259,341.303 C447.259,341.303 488.37300000000005,329.388 528.865,317.428 C611.4630000000001,293.029 611.783,293.029 612.5450000000001,291.241 C612.5450000000001,291.241 613.3620000000001,289.695 613.3620000000001,289.695 C613.3620000000001,289.695 612.753,288.205 612.753,288.205z" style="fill: rgb(66, 133, 244);"></path>
</g>
<g transform="matrix(0.3808000000000001,0,0,0.3808000000000001,380.8288,81.38879999999996)">
<path d=" M118.826,143.673 C115.76299999999999,150.09300000000002 97.35799999999999,156.014 94.99799999999999,167.809 C92.695,179.341 99.383,190.642 99.383,190.642 C78.16799999999999,179.691 48.994,168.287 49.047,168.27 C49.117,168.24 59.88399999999999,161.543 62.00299999999999,154.192 C66.35199999999999,139.107 64.193,129.695 60.272999999999996,122.11800000000001 C70.501,105.00000000000001 124.76299999999999,132.09300000000002 118.826,143.673z" style="fill: rgb(174, 124, 63);"></path>
</g>
<g transform="matrix(0.3808000000000001,0,0,0.3808000000000001,380.8131872,80.24639999999997)">
<path d=" M105.74199999999999,40.19500000000001 C133.713,44.44500000000001 152.952,70.56 148.707,98.525 C148.707,98.525 145.545,119.36500000000001 145.545,119.36500000000001 C142.34,140.487 136.052,161.25900000000001 125.68799999999999,164.976 C112.836,169.585 106.851,165.41 101.69699999999999,167.51600000000002 C96.98899999999999,169.44 95.51899999999999,168.702 90.53299999999999,163.78900000000002 C77.535,150.981 42.705999999999996,114.2 46.846,86.953 C46.846,86.953 47.41799999999999,83.164 47.41799999999999,83.164 C51.66299999999999,55.193000000000005 77.77099999999999,35.956 105.74199999999999,40.19500000000001z" style="fill: rgb(174, 124, 63);"></path>
<path d=" M125.38399999999999,135.153 C140.051,136.862 143.012,139.146 147.899,139.72299999999998 C152.781,140.299 156.38,138.8 153.487,132.563 C150.58599999999998,126.309 146.93,118.958 147.634,107.084 C148.412,93.961 125.38399999999999,135.153 125.38399999999999,135.153z" style="fill: rgb(174, 124, 63);"></path>
<path d=" M107.717,124.905 C107.717,124.905 108.00800000000001,166.75400000000002 108.00800000000001,166.75400000000002 C108.00800000000001,166.75400000000002 100.37700000000001,169.881 100.37700000000001,169.881 C100.37700000000001,169.881 55.471000000000004,125.296 55.471000000000004,125.296 C55.471000000000004,125.296 107.717,124.905 107.717,124.905z" style="fill: rgb(68, 68, 68);"></path>
<path d=" M140.31,80.48649999999999 C143.66417225,80.48649999999999 146.3875,83.20982774999999 146.3875,86.564 C146.3875,89.91817225 143.66417225,92.6415 140.31,92.6415 C136.95582775,92.6415 134.23250000000002,89.91817225 134.23250000000002,86.564 C134.23250000000002,83.20982774999999 136.95582775,80.48649999999999 140.31,80.48649999999999z M140.31,80.48649999999999 C143.66417225,80.48649999999999 146.3875,83.20982774999999 146.3875,86.564 C146.3875,89.91817225 143.66417225,92.6415 140.31,92.6415 C136.95582775,92.6415 134.23250000000002,89.91817225 134.23250000000002,86.564 C134.23250000000002,83.20982774999999 136.95582775,80.48649999999999 140.31,80.48649999999999z" style="fill: rgb(7, 9, 9);"></path>
<g style="stroke-linecap: butt; stroke-linejoin: miter; fill-opacity: 0; stroke-miterlimit: 4; stroke: rgb(88, 79, 68); stroke-opacity: 1; stroke-width: 0;">
<path d=" M140.31,80.48649999999999 C143.66417225,80.48649999999999 146.3875,83.20982774999999 146.3875,86.564 C146.3875,89.91817225 143.66417225,92.6415 140.31,92.6415 C136.95582775,92.6415 134.23250000000002,89.91817225 134.23250000000002,86.564 C134.23250000000002,83.20982774999999 136.95582775,80.48649999999999 140.31,80.48649999999999z"></path>
<path d=" M140.31,80.48649999999999 C143.66417225,80.48649999999999 146.3875,83.20982774999999 146.3875,86.564 C146.3875,89.91817225 143.66417225,92.6415 140.31,92.6415 C136.95582775,92.6415 134.23250000000002,89.91817225 134.23250000000002,86.564 C134.23250000000002,83.20982774999999 136.95582775,80.48649999999999 140.31,80.48649999999999z"></path>
</g>
<path d=" M127.645,81.11200000000001 C131.9100832,81.11200000000001 135.373,84.57491680000001 135.373,88.84 C135.373,93.1050832 131.9100832,96.568 127.645,96.568 C123.37991679999999,96.568 119.917,93.1050832 119.917,88.84 C119.917,84.57491680000001 123.37991679999999,81.11200000000001 127.645,81.11200000000001z M127.645,81.11200000000001 C131.9100832,81.11200000000001 135.373,84.57491680000001 135.373,88.84 C135.373,93.1050832 131.9100832,96.568 127.645,96.568 C123.37991679999999,96.568 119.917,93.1050832 119.917,88.84 C119.917,84.57491680000001 123.37991679999999,81.11200000000001 127.645,81.11200000000001z" style="fill: rgb(7, 9, 9);"></path>
<g style="stroke-linecap: butt; stroke-linejoin: miter; fill-opacity: 0; stroke-miterlimit: 4; stroke: rgb(88, 79, 68); stroke-opacity: 1; stroke-width: 0;">
<path d=" M127.645,81.11200000000001 C131.9100832,81.11200000000001 135.373,84.57491680000001 135.373,88.84 C135.373,93.1050832 131.9100832,96.568 127.645,96.568 C123.37991679999999,96.568 119.917,93.1050832 119.917,88.84 C119.917,84.57491680000001 123.37991679999999,81.11200000000001 127.645,81.11200000000001z"></path>
<path d=" M127.645,81.11200000000001 C131.9100832,81.11200000000001 135.373,84.57491680000001 135.373,88.84 C135.373,93.1050832 131.9100832,96.568 127.645,96.568 C123.37991679999999,96.568 119.917,93.1050832 119.917,88.84 C119.917,84.57491680000001 123.37991679999999,81.11200000000001 127.645,81.11200000000001z"></path>
</g>
<path d=" M133.811,77.924 C136.4292136,77.924 138.555,80.0497864 138.555,82.668 C138.555,85.28621360000001 136.4292136,87.412 133.811,87.412 C131.19278640000002,87.412 129.067,85.28621360000001 129.067,82.668 C129.067,80.0497864 131.19278640000002,77.924 133.811,77.924z M133.811,77.924 C136.4292136,77.924 138.555,80.0497864 138.555,82.668 C138.555,85.28621360000001 136.4292136,87.412 133.811,87.412 C131.19278640000002,87.412 129.067,85.28621360000001 129.067,82.668 C129.067,80.0497864 131.19278640000002,77.924 133.811,77.924z" style="fill: rgb(7, 9, 9);"></path>
<g style="stroke-linecap: butt; stroke-linejoin: miter; fill-opacity: 0; stroke-miterlimit: 4; stroke: rgb(88, 79, 68); stroke-opacity: 1; stroke-width: 0;">
<path d=" M133.811,77.924 C136.4292136,77.924 138.555,80.0497864 138.555,82.668 C138.555,85.28621360000001 136.4292136,87.412 133.811,87.412 C131.19278640000002,87.412 129.067,85.28621360000001 129.067,82.668 C129.067,80.0497864 131.19278640000002,77.924 133.811,77.924z"></path>
<path d=" M133.811,77.924 C136.4292136,77.924 138.555,80.0497864 138.555,82.668 C138.555,85.28621360000001 136.4292136,87.412 133.811,87.412 C131.19278640000002,87.412 129.067,85.28621360000001 129.067,82.668 C129.067,80.0497864 131.19278640000002,77.924 133.811,77.924z"></path>
</g>
<path d=" M146.056,76.5695 C149.58070935,76.5695 152.44250000000002,79.43129065000001 152.44250000000002,82.956 C152.44250000000002,86.48070935 149.58070935,89.3425 146.056,89.3425 C142.53129065000002,89.3425 139.6695,86.48070935 139.6695,82.956 C139.6695,79.43129065000001 142.53129065000002,76.5695 146.056,76.5695z M146.056,76.5695 C149.58070935,76.5695 152.44250000000002,79.43129065000001 152.44250000000002,82.956 C152.44250000000002,86.48070935 149.58070935,89.3425 146.056,89.3425 C142.53129065000002,89.3425 139.6695,86.48070935 139.6695,82.956 C139.6695,79.43129065000001 142.53129065000002,76.5695 146.056,76.5695z" style="fill: rgb(7, 9, 9);"></path>
<g style="stroke-linecap: butt; stroke-linejoin: miter; fill-opacity: 0; stroke-miterlimit: 4; stroke: rgb(88, 79, 68); stroke-opacity: 1; stroke-width: 0;">
<path d=" M146.056,76.5695 C149.58070935,76.5695 152.44250000000002,79.43129065000001 152.44250000000002,82.956 C152.44250000000002,86.48070935 149.58070935,89.3425 146.056,89.3425 C142.53129065000002,89.3425 139.6695,86.48070935 139.6695,82.956 C139.6695,79.43129065000001 142.53129065000002,76.5695 146.056,76.5695z"></path>
<path d=" M146.056,76.5695 C149.58070935,76.5695 152.44250000000002,79.43129065000001 152.44250000000002,82.956 C152.44250000000002,86.48070935 149.58070935,89.3425 146.056,89.3425 C142.53129065000002,89.3425 139.6695,86.48070935 139.6695,82.956 C139.6695,79.43129065000001 142.53129065000002,76.5695 146.056,76.5695z"></path>
</g>
<path d=" M119.2,80.408 C122.9617504,80.408 126.016,83.4622496 126.016,87.224 C126.016,90.9857504 122.9617504,94.04 119.2,94.04 C115.4382496,94.04 112.384,90.9857504 112.384,87.224 C112.384,83.4622496 115.4382496,80.408 119.2,80.408z M119.2,80.408 C122.9617504,80.408 126.016,83.4622496 126.016,87.224 C126.016,90.9857504 122.9617504,94.04 119.2,94.04 C115.4382496,94.04 112.384,90.9857504 112.384,87.224 C112.384,83.4622496 115.4382496,80.408 119.2,80.408z" style="fill: rgb(7, 9, 9);"></path>
<g style="stroke-linecap: butt; stroke-linejoin: miter; fill-opacity: 0; stroke-miterlimit: 4; stroke: rgb(88, 79, 68); stroke-opacity: 1; stroke-width: 0;">
<path d=" M119.2,80.408 C122.9617504,80.408 126.016,83.4622496 126.016,87.224 C126.016,90.9857504 122.9617504,94.04 119.2,94.04 C115.4382496,94.04 112.384,90.9857504 112.384,87.224 C112.384,83.4622496 115.4382496,80.408 119.2,80.408z"></path>
<path d=" M119.2,80.408 C122.9617504,80.408 126.016,83.4622496 126.016,87.224 C126.016,90.9857504 122.9617504,94.04 119.2,94.04 C115.4382496,94.04 112.384,90.9857504 112.384,87.224 C112.384,83.4622496 115.4382496,80.408 119.2,80.408z"></path>
</g>
</g>
<g transform="matrix(0.3808000000000001,0,0,0.3808000000000001,380.8131872,80.24639999999997)">
<g style="stroke-linecap: round; stroke-linejoin: round; fill-opacity: 0; stroke: rgb(0, 0, 0); stroke-opacity: 1; stroke-width: 2;">
<path d=" M139.638,116.024 C135.606,108.452 127.894,115.219 127.894,115.219"></path>
</g>
<g style="stroke-linecap: round; stroke-linejoin: round; fill-opacity: 0; stroke: rgb(88, 79, 68); stroke-opacity: 1; stroke-width: 2;">
<path d=" M129.959,137.51000000000002 C131.644,141.989 135.122,145.857 138.695,146.39100000000002"></path>
</g>
<path d=" M127.289,102.862 C127.289,102.862 131.495,100.122 135.722,100.122 C139.949,100.122 142.276,103.53 142.276,103.53" style="fill: rgb(174, 124, 63);"></path>
<g style="stroke-linecap: round; stroke-linejoin: miter; fill-opacity: 0; stroke-miterlimit: 4; stroke: rgb(0, 0, 0); stroke-opacity: 1; stroke-width: 4;">
<path d=" M127.289,102.862 C127.289,102.862 131.495,100.122 135.722,100.122 C139.949,100.122 142.276,103.53 142.276,103.53"></path>
</g>
</g>
<g transform="matrix(-0.756618180346869,-0.08696832278820303,-0.08696832278820303,0.756618180346869,624.7789276557279,-30.387389033375634)">
<path d=" M221.145,226.114 C222.01500000000001,226.34400000000002 222.806,226.81500000000003 223.43200000000002,227.491 C223.43200000000002,227.491 222.60500000000002,228.257 222.60500000000002,228.257 C222.119,227.735 221.643,227.388 221.12300000000002,227.223 C220.606,227.05900000000003 220.81300000000002,226.026 221.145,226.114z" style="fill: rgb(240, 91, 91);"></path>
<path d="" style="fill: rgb(240, 91, 91);"></path>
<path d=" M221.45899999999997,231.038 C221.279,235.163 223.87599999999998,237.64600000000002 228.58599999999998,237.85000000000002 C232.97199999999998,238.041 235.23299999999998,235.14700000000002 236.01799999999997,231.92700000000002 C236.48,230.014 238.02499999999998,230.181 237.618,228.555 C237.22799999999998,227.00300000000001 235.96099999999998,227.478 234.932,226.887 C233.474,225.70100000000002 230.97099999999998,225.722 228.55399999999997,225.616 C223.886,225.41400000000002 221.628,227.138 221.45899999999997,231.038z M222.589,231.085 C222.732,227.827 224.44199999999998,226.57000000000002 228.506,226.746 C233.16799999999998,226.948 235.194,227.356 235.06099999999998,230.42600000000002 C234.932,233.452 233.16799999999998,236.919 228.635,236.723 C224.588,236.54600000000002 222.439,234.54600000000002 222.589,231.085z" style="fill: rgb(240, 91, 91);"></path>
<path d=" M243.323,229.56799999999998 C243.323,229.56799999999998 242.99800000000002,228.21699999999998 242.99800000000002,228.21699999999998 C242.99800000000002,228.21699999999998 236.77200000000002,227.89999999999998 236.77200000000002,227.89999999999998 C236.77200000000002,227.89999999999998 236.711,229.286 236.711,229.286 C236.711,229.286 243.323,229.56799999999998 243.323,229.56799999999998z" style="fill: rgb(240, 91, 91);"></path>
</g>
<g transform="matrix(0.3808000000000001,0,0,0.3808000000000001,380.8131872,80.24639999999997)">
<path d=" M146.836,52.339 C139.711,40.929 124,26.162 95.182,26.162 C95.182,26.162 94.558,26.162 94.558,26.162 C74.90700000000001,26.162 58.98100000000001,34.482 48.504000000000005,47.633 C35.70700000000001,63.69800000000001 33.30800000000001,86.443 36.605000000000004,101.28200000000001 C42.068000000000005,125.842 61.382000000000005,140.047 90.98700000000001,140.755 C92.107,140.782 93.168,140.946 94.17500000000001,140.946 C100.30900000000001,140.946 104.989,140.347 107.902,137.08100000000002 C110.34700000000001,134.342 111.12100000000001,130.378 110.408,124.146 C108.828,110.34 111.24600000000001,99.751 117.59200000000001,92.636 C125.21700000000001,84.09 136.506,82.82300000000001 142.562,82.82300000000001 C145.301,82.82300000000001 148.017,83.07300000000001 150.636,83.559 C150.636,83.559 152.089,83.614 152.089,83.614 C152.089,83.614 156.75400000000002,83.538 156.75400000000002,83.538 C156.75400000000002,83.538 156.75400000000002,80.33800000000001 156.75400000000002,80.33800000000001 C156.75400000000002,80.21000000000001 155.212,65.75 146.836,52.339z" style="fill: rgb(255, 205, 64);"></path>
</g>
<g transform="matrix(0.3808000000000001,0,0,0.3808000000000001,380.8288,81.38879999999996)">
<path d=" M8.951,305.972 C8.951,305.972 42.31400000000001,309.591 62.866,314.449 C87.909,320.369 96.386,322.849 96.386,322.849 C99.334,284.444 104.316,275.057 105.92099999999999,258.032 C107.358,242.79 116.202,226.553 99.19200000000001,187.94299999999998 C97.634,184.40699999999998 44.976,165.471 38.845,175.775 C36.026,180.513 32.841,184.98399999999998 30.307000000000002,191.391 C12.323,236.855 13.435000000000002,279.81399999999996 8.951,305.972z" style="fill: rgb(83, 191, 179);"></path>
</g>
<g transform="matrix(0.3808000000000001,0,0,0.3808000000000001,380.8288,81.38879999999996)">
<path d=" M146.53799999999998,281.68 C142.007,274.55600000000004 162.849,265.021 171.667,264.942 C179.999,264.867 187.789,264.995 196.29,267.795 C204.786,270.572 215.725,284.672 216.47,286.479 C218.39,291.154 213.106,294.951 208.325,290.164 C209.74599999999998,296.82 203.393,296.946 200.027,293.582 C200.903,298.189 197.04,301.678 191.684,297.194 C193.178,301.18100000000004 187.888,304.142 184.146,300.492 C180.38899999999998,296.861 169.63299999999998,285.735 169.63299999999998,285.735 C163.95499999999998,282.716 143.338,283.63 146.53799999999998,281.68z" style="fill: rgb(174, 124, 63);"></path>
</g>
<g transform="matrix(0.3808000000000001,0,0,0.3808000000000001,380.8288,81.38879999999996)">
<path d=" M157.926,263.23199999999997 C157.926,263.23199999999997 157.90800000000002,263.226 157.90800000000002,263.226 C157.518,263.19100000000003 83.777,255.685 83.777,255.685 C83.777,255.685 76.874,261.22 72.95400000000001,267.451 C70.249,271.75 65.445,278.966 68.332,279.707 C78.168,282.23 163.825,284.692 164.382,284.733 C164.382,284.733 171.949,264.726 171.949,264.726 C171.949,264.726 157.926,263.23199999999997 157.926,263.23199999999997z" style="fill: rgb(174, 124, 63);"></path>
</g>
<g transform="matrix(0.3807947800878202,-0.001993855027004576,0.001993855027004576,0.3807947800878202,380.4975348351016,81.49701116096574)">
<path d=" M84.7,254.553 C81.922,234.656 72.527,184.802 72.527,184.802 C70.431,173.32 66.107,167.667 54.61,169.734 C43.108,171.801 39.241,179.95499999999998 41.238,191.469 C41.238,191.469 47.274,275.522 66.73400000000001,280.713 C70.572,281.737 163.724,274.892 167.19299999999998,269.95 C168.993,267.386 185.486,270.129 174.25799999999998,267.329 C160.36,263.863 84.78200000000001,255.142 84.7,254.553z" style="fill: rgb(174, 124, 63);"></path>
</g>
<g transform="matrix(0.3808000000000001,0,0,0.3808000000000001,380.8288,81.38879999999996)">
<path d=" M82.765,222.605 C79.987,202.708 78.527,183.819 78.45400000000001,183.404 C78.45400000000001,183.404 78.44200000000001,183.375 78.44200000000001,183.375 C78.44200000000001,183.375 78.44800000000001,183.325 78.44800000000001,183.325 C78.44800000000001,183.325 78.43,183.334 78.43,183.334 C76.334,171.852 65.334,164.21699999999998 53.837,166.284 C42.335,168.351 34.677,179.311 36.674,190.825 C36.674,190.825 36.689,190.869 36.689,190.869 C36.689,190.869 36.689,190.904 36.689,190.904 C36.765,191.309 38.337,210.368 42.127,230.149 C42.7,233.138 83.042,224.587 82.765,222.605z" style="fill: rgb(83, 191, 179);"></path>
</g>
<g transform="matrix(0.3808000000000001,0,0,0.3808000000000001,380.8288,81.38879999999996)">
<path d=" M154.68400000000003,483.815 C156.506,515.722 193.43,513.984 197.275,530.8439999999999 C197.275,530.8439999999999 174.815,532.028 160.895,532.028 C145.51500000000001,532.028 102.58600000000001,513.3489999999999 103.11900000000001,512.012 C110.09700000000001,494.513 115.80100000000002,485.796 121.58600000000001,471.012 C121.58600000000001,471.012 154.68400000000003,483.815 154.68400000000003,483.815z" style="fill: rgb(109, 110, 112);"></path>
</g>
<g transform="matrix(0.3808000000000001,0,0,0.3808000000000001,380.8288,81.38879999999996)">
<path d=" M209.373,352.522 C188.752,351.74399999999997 157.284,372.604 162.767,377.052 C170,380.75 164.608,386.445 164.608,386.445 C140.25,406 125.697,458.298 122.128,470.283 C122.128,470.283 152.002,481.227 152.002,481.227 C152.358,478.637 161.25,455.581 200.529,398.846 C225,363.5 219.858,352.918 209.373,352.522z" style="fill: rgb(67, 67, 67);"></path>
</g>
<g transform="matrix(0.3808000000000001,0,0,0.3808000000000001,380.8288,81.38879999999996)">
<path d=" M193.014,339.355 C128.55599999999998,322.464 8.951000000000008,304.913 8.951000000000008,304.913 C0.38000000000000966,340.911 20.576000000000008,365.666 54.108000000000004,369.2 C87.051,372.675 141.978,373.754 159.409,376.912 C162.85000000000002,377.53499999999997 197,382.001 205.086,377.441 C227.365,364.878 216.38,345.478 193.014,339.355z" style="fill: rgb(67, 67, 67);"></path>
</g>




<g>
<g transform="matrix(0.3808000000000001,0,0,0.3808000000000001,443.28000000000003,200.95999999999998)">
<path d="" style="fill: rgb(7, 9, 9); fill-opacity: 0.25;"></path>
<g style="stroke-linecap: round; stroke-linejoin: miter; fill-opacity: 0; stroke-miterlimit: 4; stroke: rgb(88, 79, 68); stroke-opacity: 0.67; stroke-width: 2;">
<path d=""></path>
</g>
</g>
<g transform="matrix(0.3808000000000001,0,0,0.3808000000000001,437.1872,209.33759999999998)">
<path d=" M-421.863977866962,111.99999999999999 C-444.3921010341604,112.00000000000001 -465.85466251018704,112 -480.39364654524536,112" style="fill: rgb(7, 9, 9); fill-opacity: 0.25;"></path>
<g style="stroke-linecap: round; stroke-linejoin: miter; fill-opacity: 0; stroke-miterlimit: 4; stroke: rgb(88, 79, 68); stroke-opacity: 0.67; stroke-width: 2;">
<path d=" M-421.863977866962,111.99999999999999 C-444.3921010341604,112.00000000000001 -465.85466251018704,112 -480.39364654524536,112"></path>
</g>
</g>
<g transform="matrix(0.3808000000000001,0,0,0.3808000000000001,431.0944,221.904)">
<path d=" M-344.0464830170877,112 C-371.4509501392964,112 -418.2531165675836,111.99999999999999 -462.9841853617659,112" style="fill: rgb(7, 9, 9); fill-opacity: 0.25;"></path>
<g style="stroke-linecap: round; stroke-linejoin: miter; fill-opacity: 0; stroke-miterlimit: 4; stroke: rgb(88, 79, 68); stroke-opacity: 0.67; stroke-width: 2;">
<path d=" M-344.0464830170877,112 C-371.4509501392964,112 -418.2531165675836,111.99999999999999 -462.9841853617659,112"></path>
</g>
</g>
<g transform="matrix(0.3808000000000001,0,0,0.3808000000000001,425.0016,235.232)">
<path d=" M-413.327890336211,111.99999999999999 C-433.96818195308555,112.00000000000001 -453.63220475793673,112 -466.95283817553207,112" style="fill: rgb(7, 9, 9); fill-opacity: 0.25;"></path>
<g style="stroke-linecap: round; stroke-linejoin: miter; fill-opacity: 0; stroke-miterlimit: 4; stroke: rgb(88, 79, 68); stroke-opacity: 0.67; stroke-width: 2;">
<path d=" M-413.327890336211,111.99999999999999 C-433.96818195308555,112.00000000000001 -453.63220475793673,112 -466.95283817553207,112"></path>
</g>
</g>
<g transform="matrix(0.3808000000000001,0,0,0.3808000000000001,421.1936,250.464)">
<path d=" M-320,112 C-320,112 -331.6586277069362,112 -348.75890665959474,112" style="fill: rgb(7, 9, 9); fill-opacity: 0.25;"></path>
<g style="stroke-linecap: round; stroke-linejoin: miter; fill-opacity: 0; stroke-miterlimit: 4; stroke: rgb(88, 79, 68); stroke-opacity: 0.67; stroke-width: 2;">
<path d=" M-320,112 C-320,112 -331.6586277069362,112 -348.75890665959474,112"></path>
</g>
</g>
</g>
</svg>